<?xml version="1.0" encoding="UTF-8" standalone="no"?>
<!-- Created with Inkscape (http://www.inkscape.org/) -->

<svg
   xmlns:dc="http://purl.org/dc/elements/1.1/"
   xmlns:cc="http://creativecommons.org/ns#"
   xmlns:rdf="http://www.w3.org/1999/02/22-rdf-syntax-ns#"
   xmlns:svg="http://www.w3.org/2000/svg"
   xmlns="http://www.w3.org/2000/svg"
   xmlns:sodipodi="http://sodipodi.sourceforge.net/DTD/sodipodi-0.dtd"
   xmlns:inkscape="http://www.inkscape.org/namespaces/inkscape"
   width="101.4771mm"
   height="91.501854mm"
   viewBox="0 0 101.4771 91.501854"
   version="1.1"
   id="svg8"
   inkscape:version="0.92.5 (2060ec1f9f, 2020-04-08)"
   sodipodi:docname="combo_tile.svg">
  <defs
     id="defs2">
    <inkscape:path-effect
       effect="skeletal"
       id="path-effect2429"
       is_visible="true"
       pattern="M 0,0 H 1"
       copytype="single_stretched"
       prop_scale="1"
       scale_y_rel="false"
       spacing="0.3"
       normal_offset="0"
       tang_offset="0"
       prop_units="false"
       vertical_pattern="false"
       fuse_tolerance="0" />
    <filter
       inkscape:collect="always"
       style="color-interpolation-filters:sRGB"
       id="filter6503"
       x="-0.027022842"
       width="1.0540457"
       y="-0.023607539"
       height="1.0472151">
      <feGaussianBlur
         inkscape:collect="always"
         stdDeviation="0.83839845"
         id="feGaussianBlur6505" />
    </filter>
  </defs>
  <sodipodi:namedview
     id="base"
     pagecolor="#ffffff"
     bordercolor="#666666"
     borderopacity="1.0"
     inkscape:pageopacity="0.0"
     inkscape:pageshadow="2"
     inkscape:zoom="0.98994949"
     inkscape:cx="-120.17702"
     inkscape:cy="146.94535"
     inkscape:document-units="mm"
     inkscape:current-layer="layer1"
     showgrid="false"
     inkscape:window-width="1848"
     inkscape:window-height="1016"
     inkscape:window-x="72"
     inkscape:window-y="27"
     inkscape:window-maximized="1"
     fit-margin-left="1"
     fit-margin-top="1"
     fit-margin-right="1"
     fit-margin-bottom="1" />
  <metadata
     id="metadata5">
    <rdf:RDF>
      <cc:Work
         rdf:about="">
        <dc:format>image/svg+xml</dc:format>
        <dc:type
           rdf:resource="http://purl.org/dc/dcmitype/StillImage" />
        <dc:title></dc:title>
      </cc:Work>
    </rdf:RDF>
  </metadata>
  <g
     inkscape:label="Layer 1"
     inkscape:groupmode="layer"
     id="layer1"
     transform="translate(-35.440022,-83.400184)">
    <path
       sodipodi:type="star"
       style="opacity:1;fill:#327231;fill-opacity:1;fill-rule:evenodd;stroke:#4a4f00;stroke-width:1;stroke-linecap:round;stroke-linejoin:round;stroke-miterlimit:4;stroke-dasharray:none;stroke-dashoffset:0;stroke-opacity:1;paint-order:stroke markers fill"
       id="path817"
       sodipodi:sides="6"
       sodipodi:cx="86.178574"
       sodipodi:cy="129.17857"
       sodipodi:r1="49.23856"
       sodipodi:r2="42.641846"
       sodipodi:arg1="1.0471976"
       sodipodi:arg2="1.5707963"
       inkscape:flatsided="true"
       inkscape:rounded="0"
       inkscape:randomized="0"
       d="m 110.79785,171.82042 -49.238558,0 -24.619278,-42.64185 24.619282,-42.641841 49.238564,2e-6 24.61927,42.641849 z"
       inkscape:transform-center-x="1.0857143e-06"
       inkscape:transform-center-y="-1.6274465e-06" />
    <path
       style="fill:none;stroke:#7a5708;stroke-width:3.16499996;stroke-linecap:butt;stroke-linejoin:miter;stroke-miterlimit:4;stroke-dasharray:none;stroke-opacity:1"
       d="M 85.422617,86.656248 C 85.23363,135.79315 122.84226,107.63393 122.84226,107.63393"
       id="path2339"
       inkscape:connector-curvature="0"
       sodipodi:nodetypes="cc" />
    <path
       style="fill:none;stroke:#000000;stroke-width:0.26458332px;stroke-linecap:butt;stroke-linejoin:miter;stroke-opacity:1"
       d="M 122.84226,107.63393 Z"
       id="path2341"
       inkscape:connector-curvature="0" />
    <path
       style="fill:none;stroke:#7a5708;stroke-width:3.16499996;stroke-linecap:butt;stroke-linejoin:miter;stroke-miterlimit:4;stroke-dasharray:none;stroke-opacity:1"
       d="m 48.56994,108.57887 c 37.041666,23.24553 37.797618,63.31101 37.797618,63.31101"
       id="path2343"
       inkscape:connector-curvature="0" />
    <path
       style="fill:none;stroke:#7a5708;stroke-width:3.16499996;stroke-linecap:butt;stroke-linejoin:miter;stroke-miterlimit:4;stroke-dasharray:none;stroke-opacity:1"
       d="M 123.03125,151.85714 C 85.800593,128.6116 48.56994,150.34524 48.56994,150.34524"
       id="path2347"
       inkscape:connector-curvature="0" />
    <path
       inkscape:connector-curvature="0"
       id="use7265"
       d="m 78.331047,119.5704 c 0.645779,-1.10358 0.381986,-0.52805 0.79473,-1.72504 0.06161,-0.17867 0.08937,-0.37289 0.184819,-0.536 0.704355,-1.20367 -0.102893,0.87815 0.486698,-0.83172"
       style="fill:none;stroke:#52b946;stroke-width:0.26458332px;stroke-linecap:butt;stroke-linejoin:miter;stroke-opacity:1" />
    <path
       inkscape:connector-curvature="0"
       id="use7267"
       d="m 102.20939,132.1557 c -1.22796,-0.3564 -0.60541,-0.24131 -1.86698,-0.34891 -0.18831,-0.0161 -0.383421,0.005 -0.564918,-0.0482 -1.33934,-0.38873 0.876658,-0.1149 -0.925462,-0.26861"
       style="fill:none;stroke:#52b946;stroke-width:0.26458332px;stroke-linecap:butt;stroke-linejoin:miter;stroke-opacity:1" />
    <path
       inkscape:connector-curvature="0"
       id="use7269"
       d="m 102.93014,162.91408 c -1.26633,-0.17694 -0.63372,-0.15216 -1.8977,-0.078 -0.18867,0.0111 -0.37883,0.0593 -0.566,0.0332 -1.381193,-0.19298 0.85119,-0.23922 -0.95438,-0.13335"
       style="fill:none;stroke:#52b946;stroke-width:0.26458332px;stroke-linecap:butt;stroke-linejoin:miter;stroke-opacity:1" />
    <path
       inkscape:connector-curvature="0"
       id="use7271"
       d="m 94.468832,165.35171 c -1.220875,-0.37995 -0.60065,-0.2529 -1.859927,-0.38475 -0.187961,-0.0197 -0.383432,-0.003 -0.563883,-0.059 -1.331616,-0.41442 0.878711,-0.098 -0.920124,-0.28636"
       style="fill:none;stroke:#52b946;stroke-width:0.26458332px;stroke-linecap:butt;stroke-linejoin:miter;stroke-opacity:1" />
    <path
       inkscape:connector-curvature="0"
       id="use7273"
       d="m 63.282089,163.05208 c -1.278615,-0.007 -0.648337,-0.0663 -1.891175,0.17554 -0.185509,0.0361 -0.367539,0.10929 -0.556523,0.10832 -1.394594,-0.007 0.811714,-0.35052 -0.963641,-0.005"
       style="fill:none;stroke:#52b946;stroke-width:0.26458332px;stroke-linecap:butt;stroke-linejoin:miter;stroke-opacity:1" />
    <path
       inkscape:connector-curvature="0"
       id="use7275"
       d="m 54.857908,124.81287 c -0.967791,-0.83563 -0.449806,-0.47161 -1.551828,-1.09507 -0.16449,-0.0931 -0.350422,-0.15567 -0.493467,-0.27918 -1.055576,-0.91143 0.844817,0.26082 -0.729385,-0.62978"
       style="fill:none;stroke:#52b946;stroke-width:0.26458332px;stroke-linecap:butt;stroke-linejoin:miter;stroke-opacity:1" />
    <path
       inkscape:connector-curvature="0"
       id="use7277"
       d="m 59.217932,112.1828 c -0.50095,-1.17641 -0.19618,-0.62149 -0.911073,-1.66652 -0.106706,-0.15598 -0.246072,-0.29407 -0.320118,-0.46795 -0.546389,-1.28312 0.643656,0.60618 -0.377545,-0.88661"
       style="fill:none;stroke:#52b946;stroke-width:0.26458332px;stroke-linecap:butt;stroke-linejoin:miter;stroke-opacity:1" />
    <path
       inkscape:connector-curvature="0"
       id="use7279"
       d="m 59.012265,112.56897 c 0.05129,-1.2776 0.08897,-0.64562 -0.109343,-1.89615 -0.0296,-0.18666 -0.09638,-0.37113 -0.0888,-0.55997 0.05594,-1.39349 0.321936,0.82347 0.03866,-0.96288"
       style="fill:none;stroke:#52b946;stroke-width:0.26458332px;stroke-linecap:butt;stroke-linejoin:miter;stroke-opacity:1" />
    <path
       inkscape:connector-curvature="0"
       id="use7281"
       d="m 83.440236,103.47691 c -1.177108,-0.49931 -0.572566,-0.3113 -1.812525,-0.56755 -0.185078,-0.0382 -0.381251,-0.0409 -0.555233,-0.11474 -1.283879,-0.54461 0.884102,-0.0103 -0.887139,-0.37631"
       style="fill:none;stroke:#52b946;stroke-width:0.26458332px;stroke-linecap:butt;stroke-linejoin:miter;stroke-opacity:1" />
    <path
       inkscape:connector-curvature="0"
       id="use7283"
       d="m 93.413963,100.06014 c -0.08031,-1.276104 0.02213,-0.651344 -0.303683,-1.874866 -0.04863,-0.182625 -0.134018,-0.35926 -0.145893,-0.547873 -0.0876,-1.391859 0.40488,0.786011 -0.06053,-0.961751"
       style="fill:none;stroke:#52b946;stroke-width:0.26458332px;stroke-linecap:butt;stroke-linejoin:miter;stroke-opacity:1" />
    <path
       inkscape:connector-curvature="0"
       id="use7285"
       d="m 42.676211,125.88453 c 0.563753,1.14765 0.229458,0.61 0.999747,1.61489 0.114975,0.14999 0.261595,0.28035 0.344923,0.44998 0.614889,1.25174 -0.675454,-0.57053 0.424878,0.86493"
       style="fill:none;stroke:#52b946;stroke-width:0.26458332px;stroke-linecap:butt;stroke-linejoin:miter;stroke-opacity:1" />
    <path
       inkscape:connector-curvature="0"
       id="use7289"
       d="m 63.969482,90.440292 c -0.215927,1.260268 -0.171635,0.628716 -0.136555,1.894389 0.0052,0.188917 0.04762,0.380475 0.01571,0.566748 -0.235513,1.374582 -0.212846,-0.85816 -0.162736,0.949813"
       style="fill:none;stroke:#52b946;stroke-width:0.26458332px;stroke-linecap:butt;stroke-linejoin:miter;stroke-opacity:1" />
    <path
       inkscape:connector-curvature="0"
       id="use7291"
       d="m 61.437898,111.32069 c -0.657427,1.09667 -0.387555,0.52397 -0.81295,1.71653 -0.0635,0.178 -0.09332,0.37191 -0.190484,0.53401 -0.71706,1.19614 0.112186,-0.87702 -0.495477,0.82651"
       style="fill:none;stroke:#52b946;stroke-width:0.26458332px;stroke-linecap:butt;stroke-linejoin:miter;stroke-opacity:1" />
    <path
       inkscape:connector-curvature="0"
       id="use7293"
       d="m 61.2543,126.56054 c -1.264469,0.18978 -0.650836,0.034 -1.841799,0.46382 -0.177765,0.0642 -0.346401,0.16443 -0.533293,0.19248 -1.379165,0.207 0.748272,-0.47099 -0.95298,0.14303"
       style="fill:none;stroke:#52b946;stroke-width:0.26458332px;stroke-linecap:butt;stroke-linejoin:miter;stroke-opacity:1" />
    <path
       inkscape:connector-curvature="0"
       id="use7295"
       d="m 58.240399,132.09665 c 0.145698,-1.2703 0.1365,-0.63726 0.03128,-1.89904 -0.01571,-0.18834 -0.06865,-0.37725 -0.04712,-0.56501 0.158913,-1.38553 0.260113,0.84504 0.109806,-0.95737"
       style="fill:none;stroke:#52b946;stroke-width:0.26458332px;stroke-linecap:butt;stroke-linejoin:miter;stroke-opacity:1" />
    <path
       inkscape:connector-curvature="0"
       id="use7297"
       d="m 66.306798,142.50153 c -1.238918,-0.3162 -0.612945,-0.22145 -1.87736,-0.28788 -0.188729,-0.01 -0.383067,0.017 -0.566184,-0.0298 -1.351297,-0.34488 0.872453,-0.14341 -0.933723,-0.23831"
       style="fill:none;stroke:#52b946;stroke-width:0.26458332px;stroke-linecap:butt;stroke-linejoin:miter;stroke-opacity:1" />
    <path
       inkscape:connector-curvature="0"
       id="use7299"
       d="m 71.747988,148.0501 c 1.248258,-0.27704 0.646912,-0.079 1.805185,-0.59048 0.172886,-0.0763 0.33416,-0.18806 0.518656,-0.22901 1.361482,-0.30217 -0.713795,0.52177 0.940761,-0.20879"
       style="fill:none;stroke:#52b946;stroke-width:0.26458332px;stroke-linecap:butt;stroke-linejoin:miter;stroke-opacity:1" />
    <path
       inkscape:connector-curvature="0"
       id="use7301"
       d="m 84.646369,161.4057 c -1.083205,-0.67939 -0.516055,-0.39803 -1.699803,-0.84737 -0.176688,-0.0671 -0.369959,-0.10079 -0.530062,-0.2012 -1.181459,-0.74101 0.874577,0.12983 -0.816368,-0.51203"
       style="fill:none;stroke:#52b946;stroke-width:0.26458332px;stroke-linecap:butt;stroke-linejoin:miter;stroke-opacity:1" />
    <path
       inkscape:connector-curvature="0"
       id="use7303"
       d="m 70.68221,161.26856 c 1.244972,-0.29146 0.645955,-0.0865 1.798239,-0.61131 0.171992,-0.0783 0.331964,-0.19191 0.515974,-0.23499 1.357898,-0.31789 -0.707716,0.52998 0.938285,-0.21966"
       style="fill:none;stroke:#52b946;stroke-width:0.26458332px;stroke-linecap:butt;stroke-linejoin:miter;stroke-opacity:1" />
    <path
       inkscape:connector-curvature="0"
       id="use7305"
       d="m 78.832181,159.8418 c 1.065923,-0.70619 0.575553,-0.30575 1.473435,-1.19848 0.134019,-0.13325 0.244511,-0.29537 0.402056,-0.39975 1.162608,-0.77025 -0.479252,0.74301 0.803343,-0.53223"
       style="fill:none;stroke:#52b946;stroke-width:0.26458332px;stroke-linecap:butt;stroke-linejoin:miter;stroke-opacity:1" />
    <path
       inkscape:connector-curvature="0"
       id="use7307"
       d="m 73.328143,159.91792 c 0.08722,1.27565 -0.0186,0.65145 0.313821,1.8732 0.04962,0.18236 0.13596,0.35853 0.148854,0.54707 0.09513,1.39137 -0.409126,-0.78381 0.06573,0.96141"
       style="fill:none;stroke:#52b946;stroke-width:0.26458332px;stroke-linecap:butt;stroke-linejoin:miter;stroke-opacity:1" />
    <path
       inkscape:connector-curvature="0"
       id="use7309"
       d="m 71.151144,127.46809 c -1.264702,0.18823 -0.650878,0.0332 -1.842368,0.46156 -0.177844,0.0639 -0.346603,0.164 -0.53353,0.19182 -1.379418,0.2053 0.748851,-0.47007 -0.953155,0.14186"
       style="fill:none;stroke:#52b946;stroke-width:0.26458332px;stroke-linecap:butt;stroke-linejoin:miter;stroke-opacity:1" />
    <path
       inkscape:connector-curvature="0"
       id="use7311"
       d="m 72.163851,113.67272 c -0.113811,-1.27355 0.005,-0.6517 -0.352834,-1.86624 -0.05341,-0.18129 -0.14341,-0.35562 -0.160235,-0.54385 -0.124136,-1.38908 0.42539,0.7751 -0.08578,-0.95983"
       style="fill:none;stroke:#52b946;stroke-width:0.26458332px;stroke-linecap:butt;stroke-linejoin:miter;stroke-opacity:1" />
    <path
       inkscape:connector-curvature="0"
       id="use7313"
       d="m 66.647381,103.62817 c 1.238749,-0.31686 0.644049,-0.0997 1.785356,-0.64797 0.170353,-0.0818 0.327968,-0.19866 0.511058,-0.2455 1.35111,-0.3456 -0.696725,0.54435 0.933594,-0.2388"
       style="fill:none;stroke:#52b946;stroke-width:0.26458332px;stroke-linecap:butt;stroke-linejoin:miter;stroke-opacity:1" />
    <path
       inkscape:connector-curvature="0"
       id="use7315"
       d="m 74.251099,92.920219 c -0.559572,1.149687 -0.340524,0.555686 -0.660603,1.78072 -0.04778,0.18285 -0.06062,0.37862 -0.143326,0.548549 -0.610328,1.253972 0.0355,-0.883448 -0.421726,0.866473"
       style="fill:none;stroke:#52b946;stroke-width:0.26458332px;stroke-linecap:butt;stroke-linejoin:miter;stroke-opacity:1" />
    <path
       inkscape:connector-curvature="0"
       id="use7317"
       d="m 89.175785,118.69245 c -1.160516,0.53676 -0.615194,0.21513 -1.637833,0.9617 -0.152641,0.11143 -0.286394,0.25497 -0.457921,0.3343 -1.265781,0.58544 0.586173,-0.66192 -0.874633,0.40453"
       style="fill:none;stroke:#52b946;stroke-width:0.26458332px;stroke-linecap:butt;stroke-linejoin:miter;stroke-opacity:1" />
    <path
       inkscape:connector-curvature="0"
       id="use7319"
       d="m 92.020456,127.82056 c 0.62774,1.11393 0.263581,0.59604 1.089455,1.55578 0.123271,0.14325 0.277028,0.26511 0.369813,0.42975 0.68468,1.21497 -0.706632,-0.53142 0.473102,0.83953"
       style="fill:none;stroke:#52b946;stroke-width:0.26458332px;stroke-linecap:butt;stroke-linejoin:miter;stroke-opacity:1" />
    <path
       inkscape:connector-curvature="0"
       id="use7321"
       d="m 97.661242,139.05161 c 1.278627,-0.004 0.648858,0.061 1.889679,-0.19099 0.185207,-0.0376 0.366633,-0.11228 0.555619,-0.11285 1.39461,-0.004 -0.808824,0.35713 0.96365,-0.003"
       style="fill:none;stroke:#52b946;stroke-width:0.26458332px;stroke-linecap:butt;stroke-linejoin:miter;stroke-opacity:1" />
    <path
       inkscape:connector-curvature="0"
       id="use7323"
       d="m 108.92418,142.55544 c -0.9227,0.88517 -0.51171,0.4036 -1.23577,1.4423 -0.10808,0.15504 -0.18785,0.33428 -0.32423,0.46511 -1.0064,0.96546 0.33889,-0.81663 -0.6954,0.66711"
       style="fill:none;stroke:#52b946;stroke-width:0.26458332px;stroke-linecap:butt;stroke-linejoin:miter;stroke-opacity:1" />
    <path
       inkscape:connector-curvature="0"
       id="use7325"
       d="m 126.32544,135.03317 c -0.33942,-1.23276 -0.11145,-0.64212 -0.68044,-1.77323 -0.0849,-0.16883 -0.20462,-0.32429 -0.25479,-0.50649 -0.37021,-1.34458 0.55698,0.68667 -0.25581,-0.92908"
       style="fill:none;stroke:#52b946;stroke-width:0.26458332px;stroke-linecap:butt;stroke-linejoin:miter;stroke-opacity:1" />
    <path
       inkscape:connector-curvature="0"
       id="use7327"
       d="m 121.58896,137.10165 c 0.5554,-1.1517 0.3385,-0.55691 0.65414,-1.7831 0.0471,-0.18302 0.0593,-0.37884 0.14134,-0.54906 0.60578,-1.25618 -0.0323,0.88357 0.41858,-0.868"
       style="fill:none;stroke:#52b946;stroke-width:0.26458332px;stroke-linecap:butt;stroke-linejoin:miter;stroke-opacity:1" />
    <path
       inkscape:connector-curvature="0"
       id="use7329"
       d="m 121.28519,128.5411 c 1.25636,0.23761 0.62566,0.18244 1.89175,0.16918 0.18898,-0.002 0.38124,-0.0411 0.56694,-0.006 1.37032,0.25916 -0.8617,0.19802 0.94686,0.17908"
       style="fill:none;stroke:#52b946;stroke-width:0.26458332px;stroke-linecap:butt;stroke-linejoin:miter;stroke-opacity:1" />
    <path
       inkscape:connector-curvature="0"
       id="use7331"
       d="m 94.436827,99.127141 c 0.186288,-1.264989 0.156831,-0.632572 0.09205,-1.897073 -0.0097,-0.188741 -0.05654,-0.379252 -0.02901,-0.566222 0.203185,-1.379732 0.232929,0.852927 0.140397,-0.953372"
       style="fill:none;stroke:#52b946;stroke-width:0.26458332px;stroke-linecap:butt;stroke-linejoin:miter;stroke-opacity:1" />
    <path
       inkscape:connector-curvature="0"
       id="use7333"
       d="m 83.270149,125.37064 c -0.919289,-0.88871 -0.422585,-0.49615 -1.48782,-1.18057 -0.158999,-0.10216 -0.341118,-0.17512 -0.476994,-0.30648 -1.002676,-0.96932 0.828821,0.30789 -0.692832,-0.66978"
       style="fill:none;stroke:#52b946;stroke-width:0.26458332px;stroke-linecap:butt;stroke-linejoin:miter;stroke-opacity:1" />
    <path
       inkscape:connector-curvature="0"
       id="use7335"
       d="m 75.113114,121.6096 c -1.261948,0.20588 -0.650351,0.0423 -1.835739,0.48726 -0.176932,0.0664 -0.344277,0.16883 -0.530796,0.19926 -1.376415,0.22456 0.742208,-0.48049 -0.95108,0.15517"
       style="fill:none;stroke:#52b946;stroke-width:0.26458332px;stroke-linecap:butt;stroke-linejoin:miter;stroke-opacity:1" />
    <path
       inkscape:connector-curvature="0"
       id="use7337"
       d="m 79.759535,104.64633 c 0.762558,1.02636 0.336291,0.55826 1.276068,1.40677 0.140273,0.12665 0.308106,0.22826 0.420817,0.37995 0.831728,1.11946 -0.767731,-0.43855 0.57471,0.77353"
       style="fill:none;stroke:#52b946;stroke-width:0.26458332px;stroke-linecap:butt;stroke-linejoin:miter;stroke-opacity:1" />
    <path
       inkscape:connector-curvature="0"
       id="use7339"
       d="M 94.292621,95.20305 C 94.075268,93.943027 94.244434,94.553111 93.78868,93.371821 93.720653,93.195499 93.61673,93.029094 93.584601,92.842859 93.347532,91.468543 94.07182,93.580665 93.42079,91.89323"
       style="fill:none;stroke:#52b946;stroke-width:0.26458332px;stroke-linecap:butt;stroke-linejoin:miter;stroke-opacity:1" />
    <path
       inkscape:connector-curvature="0"
       id="use7341"
       d="m 99.729822,95.355149 c -1.1413,-0.576485 -0.550598,-0.34869 -1.770772,-0.686822 -0.182125,-0.05047 -0.377684,-0.06621 -0.546374,-0.151409 -1.244823,-0.628776 0.882828,0.04854 -0.860152,-0.434474"
       style="fill:none;stroke:#52b946;stroke-width:0.26458332px;stroke-linecap:butt;stroke-linejoin:miter;stroke-opacity:1" />
    <path
       inkscape:connector-curvature="0"
       id="use7343"
       d="m 96.376607,101.54841 c -0.147583,-1.27009 -0.0123,-0.65161 -0.402256,-1.856219 -0.05821,-0.179802 -0.152801,-0.351682 -0.174618,-0.539405 -0.160969,-1.385292 0.445818,0.763536 -0.111227,-0.957213"
       style="fill:none;stroke:#52b946;stroke-width:0.26458332px;stroke-linecap:butt;stroke-linejoin:miter;stroke-opacity:1" />
    <path
       inkscape:connector-curvature="0"
       id="use7345"
       d="m 123.92992,111.43328 c -0.76577,1.02396 -0.43894,0.48174 -0.98365,1.62474 -0.0813,0.1706 -0.13073,0.36047 -0.24392,0.51181 -0.83522,1.11685 0.20098,-0.86101 -0.57712,0.77172"
       style="fill:none;stroke:#52b946;stroke-width:0.26458332px;stroke-linecap:butt;stroke-linejoin:miter;stroke-opacity:1" />
    <path
       inkscape:connector-curvature="0"
       id="use7347"
       d="m 129.5475,122.75483 c 0.0931,1.27524 -0.0156,0.65154 0.32247,1.87173 0.0505,0.18213 0.13762,0.3579 0.15138,0.54638 0.10156,1.39091 -0.41274,-0.78191 0.0702,0.9611"
       style="fill:none;stroke:#52b946;stroke-width:0.26458332px;stroke-linecap:butt;stroke-linejoin:miter;stroke-opacity:1" />
    <path
       inkscape:connector-curvature="0"
       id="use7349"
       d="m 128.21905,133.55555 c -1.272,0.12999 -0.65171,0.003 -1.8616,0.37653 -0.18059,0.0557 -0.35377,0.14792 -0.54177,0.16714 -1.38739,0.14179 0.76963,-0.43521 -0.95866,0.098"
       style="fill:none;stroke:#52b946;stroke-width:0.26458332px;stroke-linecap:butt;stroke-linejoin:miter;stroke-opacity:1" />
    <path
       inkscape:connector-curvature="0"
       id="use7351"
       d="m 123.36994,136.10848 c 0.75447,1.03231 0.33189,0.56088 1.26498,1.41675 0.13927,0.12775 0.3063,0.23067 0.41782,0.38325 0.82291,1.12595 -0.76427,-0.44457 0.56861,0.77801"
       style="fill:none;stroke:#52b946;stroke-width:0.26458332px;stroke-linecap:butt;stroke-linejoin:miter;stroke-opacity:1" />
    <path
       inkscape:connector-curvature="0"
       id="use7353"
       d="m 117.852,120.44139 c -0.0761,1.27637 -0.10147,0.64377 0.0725,1.89792 0.026,0.1872 0.0892,0.37293 0.0779,0.56158 -0.083,1.39215 -0.3059,-0.82955 -0.0573,0.96195"
       style="fill:none;stroke:#52b946;stroke-width:0.26458332px;stroke-linecap:butt;stroke-linejoin:miter;stroke-opacity:1" />
    <path
       inkscape:connector-curvature="0"
       id="use7355"
       d="m 125.82927,131.6417 c -0.30503,-1.24172 -0.0936,-0.64497 -0.6309,-1.79146 -0.0802,-0.17113 -0.19552,-0.32985 -0.24061,-0.51338 -0.3327,-1.35435 0.53767,0.70189 -0.22989,-0.93583"
       style="fill:none;stroke:#52b946;stroke-width:0.26458332px;stroke-linecap:butt;stroke-linejoin:miter;stroke-opacity:1" />
    <path
       inkscape:connector-curvature="0"
       id="use7357"
       d="m 115.98715,115.1959 c -0.5833,1.13784 -0.35198,0.54851 -0.6974,1.76664 -0.0516,0.18182 -0.0685,0.37728 -0.15467,0.54546 -0.63621,1.24104 0.0538,-0.88252 -0.43961,0.85754"
       style="fill:none;stroke:#52b946;stroke-width:0.26458332px;stroke-linecap:butt;stroke-linejoin:miter;stroke-opacity:1" />
    <path
       inkscape:connector-curvature="0"
       id="use7359"
       d="m 108.59143,111.79079 c 0.30591,-1.2415 0.21636,-0.61476 0.2723,-1.87968 0.008,-0.18881 -0.0202,-0.38292 0.025,-0.56641 0.33366,-1.35411 0.15064,0.87123 0.23056,-0.93567"
       style="fill:none;stroke:#52b946;stroke-width:0.26458332px;stroke-linecap:butt;stroke-linejoin:miter;stroke-opacity:1" />
    <path
       inkscape:connector-curvature="0"
       id="use7361"
       d="m 103.70544,101.5802 c 1.15698,-0.54434 0.61378,-0.21915 1.63151,-0.9724 0.1519,-0.11243 0.28471,-0.25684 0.45572,-0.33729 1.26192,-0.593719 -0.58183,0.66574 0.87196,-0.410251"
       style="fill:none;stroke:#52b946;stroke-width:0.26458332px;stroke-linecap:butt;stroke-linejoin:miter;stroke-opacity:1" />
    <path
       inkscape:connector-curvature="0"
       id="use7363"
       d="m 97.298707,97.160242 c 0.07131,-1.276643 0.09908,-0.644149 -0.07961,-1.897636 -0.02667,-0.187098 -0.09055,-0.372599 -0.08001,-0.561291 0.07778,-1.392442 0.308987,0.828412 0.05374,-0.962154"
       style="fill:none;stroke:#52b946;stroke-width:0.26458332px;stroke-linecap:butt;stroke-linejoin:miter;stroke-opacity:1" />
    <path
       inkscape:connector-curvature="0"
       id="use7365"
       d="m 101.18995,115.42016 c -0.80527,-0.99319 -0.35959,-0.54354 -1.334404,-1.35156 -0.145503,-0.1206 -0.317481,-0.21502 -0.436506,-0.36182 -0.878317,-1.08328 0.78559,0.4057 -0.606902,-0.74853"
       style="fill:none;stroke:#52b946;stroke-width:0.26458332px;stroke-linecap:butt;stroke-linejoin:miter;stroke-opacity:1" />
    <path
       inkscape:connector-curvature="0"
       id="use7367"
       d="m 99.522146,121.23753 c 0.548564,1.15498 0.221389,0.61296 0.978354,1.62794 0.11298,0.15149 0.25787,0.28378 0.33895,0.45448 0.59832,1.25975 -0.66787,-0.57939 0.41343,0.87047"
       style="fill:none;stroke:#52b946;stroke-width:0.26458332px;stroke-linecap:butt;stroke-linejoin:miter;stroke-opacity:1" />
    <path
       inkscape:connector-curvature="0"
       id="use7369"
       d="m 92.636321,128.31899 c 1.040562,-0.74306 0.564503,-0.3257 1.430601,-1.2493 0.129276,-0.13785 0.234028,-0.30374 0.387825,-0.41357 1.134948,-0.81045 -0.452963,0.75932 0.784229,-0.56001"
       style="fill:none;stroke:#52b946;stroke-width:0.26458332px;stroke-linecap:butt;stroke-linejoin:miter;stroke-opacity:1" />
    <path
       inkscape:connector-curvature="0"
       id="use7371"
       d="m 83.303808,131.25077 c 0.878508,0.92905 0.399909,0.5146 1.433377,1.24611 0.154257,0.10919 0.33292,0.19025 0.462769,0.32756 0.958195,1.01331 -0.814179,-0.34475 0.662096,0.70018"
       style="fill:none;stroke:#52b946;stroke-width:0.26458332px;stroke-linecap:butt;stroke-linejoin:miter;stroke-opacity:1" />
    <path
       inkscape:connector-curvature="0"
       id="use7373"
       d="m 74.168173,142.08762 c -0.614471,-1.1213 -0.256487,-0.59913 -1.070908,-1.5686 -0.121562,-0.14471 -0.273861,-0.26838 -0.364685,-0.43411 -0.670207,-1.22302 0.700273,0.53977 -0.463102,-0.84509"
       style="fill:none;stroke:#52b946;stroke-width:0.26458332px;stroke-linecap:butt;stroke-linejoin:miter;stroke-opacity:1" />
    <path
       inkscape:connector-curvature="0"
       id="use7375"
       d="m 70.078212,151.93102 c -1.215926,0.3955 -0.636345,0.14074 -1.74022,0.76091 -0.164766,0.0926 -0.31458,0.21925 -0.494297,0.27771 -1.326219,0.43138 0.660455,-0.58783 -0.916394,0.29807"
       style="fill:none;stroke:#52b946;stroke-width:0.26458332px;stroke-linecap:butt;stroke-linejoin:miter;stroke-opacity:1" />
    <path
       inkscape:connector-curvature="0"
       id="use7377"
       d="m 72.209376,169.4545 c 0.793668,-1.00249 0.452032,-0.46948 1.028009,-1.59705 0.08597,-0.1683 0.140608,-0.35673 0.257912,-0.5049 0.865659,-1.09343 -0.224608,0.85515 0.598156,-0.75554"
       style="fill:none;stroke:#52b946;stroke-width:0.26458332px;stroke-linecap:butt;stroke-linejoin:miter;stroke-opacity:1" />
    <path
       inkscape:connector-curvature="0"
       id="use7379"
       d="m 97.118934,157.88529 c 0.07674,-1.27633 0.101814,-0.64372 -0.07154,-1.89796 -0.02587,-0.18721 -0.08896,-0.37298 -0.07762,-0.56162 0.0837,-1.3921 0.305463,0.82971 0.05784,-0.96192"
       style="fill:none;stroke:#52b946;stroke-width:0.26458332px;stroke-linecap:butt;stroke-linejoin:miter;stroke-opacity:1" />
    <path
       inkscape:connector-curvature="0"
       id="use7381"
       d="m 112.95927,149.37975 c 0.59502,-1.13175 0.35763,-0.54484 0.71561,-1.75934 0.0534,-0.18128 0.0724,-0.37655 0.1603,-0.54383 0.64899,-1.2344 -0.0629,0.88192 0.44844,-0.85295"
       style="fill:none;stroke:#52b946;stroke-width:0.26458332px;stroke-linecap:butt;stroke-linejoin:miter;stroke-opacity:1" />
    <path
       inkscape:connector-curvature="0"
       id="use7383"
       d="m 82.515202,141.41429 c -1.221877,-0.37672 -0.601318,-0.25131 -1.860939,-0.37982 -0.188013,-0.0192 -0.383438,-0.002 -0.564037,-0.0575 -1.332709,-0.41089 0.878448,-0.10034 -0.920879,-0.28392"
       style="fill:none;stroke:#52b946;stroke-width:0.26458332px;stroke-linecap:butt;stroke-linejoin:miter;stroke-opacity:1" />
    <path
       inkscape:connector-curvature="0"
       id="use7385"
       d="m 91.013099,150.09715 c -0.287598,1.24586 -0.207285,0.61788 -0.244595,1.88349 -0.0056,0.1889 0.0258,0.38257 -0.01671,0.56671 -0.313684,1.35888 -0.163454,-0.86892 -0.21675,0.93897"
       style="fill:none;stroke:#52b946;stroke-width:0.26458332px;stroke-linecap:butt;stroke-linejoin:miter;stroke-opacity:1" />
    <path
       inkscape:connector-curvature="0"
       id="use7387"
       d="m 90.282607,131.03677 c 1.165883,-0.52499 0.617338,-0.20889 1.647472,-0.94509 0.15376,-0.10988 0.288957,-0.25205 0.461277,-0.32965 1.271636,-0.57261 -0.592835,0.65596 0.878679,-0.39567"
       style="fill:none;stroke:#52b946;stroke-width:0.26458332px;stroke-linecap:butt;stroke-linejoin:miter;stroke-opacity:1" />
    <path
       inkscape:connector-curvature="0"
       id="use7389"
       d="m 88.938311,125.07539 c 1.203016,0.43319 0.588967,0.27903 1.841241,0.46604 0.186916,0.0279 0.382936,0.0197 0.560747,0.0837 1.312137,0.47249 -0.882167,0.0594 0.906664,0.32648"
       style="fill:none;stroke:#52b946;stroke-width:0.26458332px;stroke-linecap:butt;stroke-linejoin:miter;stroke-opacity:1" />
    <path
       inkscape:connector-curvature="0"
       id="use7391"
       d="m 91.079169,130.73972 c -0.135383,-1.27145 -0.006,-0.6517 -0.384417,-1.86 -0.05648,-0.18035 -0.149418,-0.35313 -0.169431,-0.54105 -0.147663,-1.38678 0.438467,0.76778 -0.102033,-0.95824"
       style="fill:none;stroke:#52b946;stroke-width:0.26458332px;stroke-linecap:butt;stroke-linejoin:miter;stroke-opacity:1" />
    <path
       inkscape:connector-curvature="0"
       id="use7393"
       d="m 89.070517,131.14575 c 0.821143,-0.98011 0.464868,-0.45677 1.071868,-1.56794 0.0906,-0.16586 0.15044,-0.3527 0.271805,-0.49757 0.895625,-1.06902 -0.248218,0.8486 0.618862,-0.73867"
       style="fill:none;stroke:#52b946;stroke-width:0.26458332px;stroke-linecap:butt;stroke-linejoin:miter;stroke-opacity:1" />
    <path
       inkscape:connector-curvature="0"
       id="use7395"
       d="m 123.4801,132.46549 c -1.24288,0.30026 -0.64533,0.0911 -1.79387,0.62402 -0.17143,0.0796 -0.33059,0.19426 -0.5143,0.23864 -1.35561,0.3275 0.70395,-0.53498 -0.9367,0.2263"
       style="fill:none;stroke:#52b946;stroke-width:0.26458332px;stroke-linecap:butt;stroke-linejoin:miter;stroke-opacity:1" />
    <path
       inkscape:connector-curvature="0"
       id="use7397"
       d="m 96.28484,135.08491 c -0.130375,-1.27197 -0.0035,-0.65172 -0.37709,-1.8615 -0.05577,-0.18057 -0.148025,-0.35372 -0.167299,-0.54172 -0.1422,-1.38734 0.43544,0.7695 -0.09826,-0.95863"
       style="fill:none;stroke:#52b946;stroke-width:0.26458332px;stroke-linecap:butt;stroke-linejoin:miter;stroke-opacity:1" />
    <path
       inkscape:connector-curvature="0"
       id="use7399"
       d="m 99.345322,136.43842 c -0.271511,1.24948 -0.199302,0.6205 -0.220291,1.88649 -0.0031,0.18896 0.03073,0.38221 -0.0094,0.56689 -0.296139,1.3628 -0.174644,-0.86674 -0.204627,0.94167"
       style="fill:none;stroke:#52b946;stroke-width:0.26458332px;stroke-linecap:butt;stroke-linejoin:miter;stroke-opacity:1" />
    <path
       inkscape:connector-curvature="0"
       id="use7401"
       d="m 94.894795,131.94814 c -0.353847,1.2287 -0.240048,0.60591 -0.345022,1.86771 -0.01567,0.18834 0.0053,0.38341 -0.047,0.56501 -0.385942,1.34015 -0.116729,-0.87642 -0.26668,0.92602"
       style="fill:none;stroke:#52b946;stroke-width:0.26458332px;stroke-linecap:butt;stroke-linejoin:miter;stroke-opacity:1" />
    <path
       inkscape:connector-curvature="0"
       id="use7403"
       d="m 124.5681,128.03111 c 0.22052,1.25947 0.0498,0.64981 0.50855,1.82995 0.0685,0.17615 0.17281,0.3423 0.20541,0.52845 0.24053,1.37371 -0.48908,-0.73658 0.1662,0.94921"
       style="fill:none;stroke:#52b946;stroke-width:0.26458332px;stroke-linecap:butt;stroke-linejoin:miter;stroke-opacity:1" />
    <path
       inkscape:connector-curvature="0"
       id="use7405"
       d="m 107.85009,134.46117 c 1.27634,-0.0764 0.65127,0.0241 1.87578,-0.29798 0.18277,-0.0481 0.35967,-0.13292 0.54831,-0.14422 1.39212,-0.0834 -0.78723,0.40248 0.96193,-0.0576"
       style="fill:none;stroke:#52b946;stroke-width:0.26458332px;stroke-linecap:butt;stroke-linejoin:miter;stroke-opacity:1" />
    <path
       inkscape:connector-curvature="0"
       id="use7407"
       d="m 110.62492,135.66076 c -0.55934,-1.14979 -0.22711,-0.61086 -0.99354,-1.61871 -0.1144,-0.15043 -0.26052,-0.28135 -0.3432,-0.45129 -0.61008,-1.25409 0.67326,0.57311 -0.42156,-0.86656"
       style="fill:none;stroke:#52b946;stroke-width:0.26458332px;stroke-linecap:butt;stroke-linejoin:miter;stroke-opacity:1" />
    <path
       inkscape:connector-curvature="0"
       id="use7409"
       d="m 108.02249,132.20503 c 0.4785,-1.18572 0.30117,-0.57796 0.53553,-1.82224 0.035,-0.18573 0.0342,-0.38192 0.10494,-0.55717 0.52191,-1.29328 0.0259,0.88378 0.36063,-0.89363"
       style="fill:none;stroke:#52b946;stroke-width:0.26458332px;stroke-linecap:butt;stroke-linejoin:miter;stroke-opacity:1" />
    <path
       inkscape:connector-curvature="0"
       id="use7411"
       d="m 108.43455,135.01684 c 0.20357,-1.26232 0.16547,-0.63036 0.11799,-1.89563 -0.007,-0.18886 -0.0513,-0.37999 -0.0213,-0.56657 0.22203,-1.37682 0.22124,0.85603 0.15342,-0.95136"
       style="fill:none;stroke:#52b946;stroke-width:0.26458332px;stroke-linecap:butt;stroke-linejoin:miter;stroke-opacity:1" />
    <path
       inkscape:connector-curvature="0"
       id="use7413"
       d="m 110.56634,127.55362 c -0.42535,-1.20581 -0.15638,-0.63268 -0.80357,-1.72094 -0.0966,-0.16244 -0.22693,-0.30908 -0.28981,-0.4873 -0.46393,-1.31519 0.60393,0.64576 -0.32056,-0.90877"
       style="fill:none;stroke:#52b946;stroke-width:0.26458332px;stroke-linecap:butt;stroke-linejoin:miter;stroke-opacity:1" />
    <path
       inkscape:connector-curvature="0"
       id="use7415"
       d="m 116.87424,137.90402 c 0.88544,0.92244 0.40375,0.51159 1.44266,1.23534 0.15507,0.10803 0.33434,0.18774 0.46521,0.32408 0.96576,1.00611 -0.81673,-0.33864 0.66732,0.69521"
       style="fill:none;stroke:#52b946;stroke-width:0.26458332px;stroke-linecap:butt;stroke-linejoin:miter;stroke-opacity:1" />
    <path
       inkscape:connector-curvature="0"
       id="use7417"
       d="m 109.56007,116.40601 c 0.0969,-1.27496 0.11197,-0.64203 -0.0416,-1.89885 -0.0229,-0.1876 -0.0831,-0.37434 -0.0687,-0.56278 0.10568,-1.39061 0.29232,0.83444 0.073,-0.96089"
       style="fill:none;stroke:#52b946;stroke-width:0.26458332px;stroke-linecap:butt;stroke-linejoin:miter;stroke-opacity:1" />
    <path
       inkscape:connector-curvature="0"
       id="use7419"
       d="m 91.120325,108.15915 c -1.264042,0.19261 -0.650759,0.0354 -1.840757,0.46795 -0.177621,0.0645 -0.346032,0.16519 -0.532861,0.19367 -1.378699,0.21008 0.747216,-0.47267 -0.952658,0.14516"
       style="fill:none;stroke:#52b946;stroke-width:0.26458332px;stroke-linecap:butt;stroke-linejoin:miter;stroke-opacity:1" />
    <path
       inkscape:connector-curvature="0"
       id="use7421"
       d="m 93.107913,109.52694 c -1.278631,0.002 -0.648778,-0.0619 -1.889924,0.18854 -0.185255,0.0374 -0.366778,0.11182 -0.555764,0.11214 -1.394611,0.002 0.809284,-0.35609 -0.963652,0.002"
       style="fill:none;stroke:#52b946;stroke-width:0.26458332px;stroke-linecap:butt;stroke-linejoin:miter;stroke-opacity:1" />
    <path
       inkscape:connector-curvature="0"
       id="use7423"
       d="m 69.77175,100.65392 c 0.829455,-0.973092 0.468739,-0.4528 1.085174,-1.558769 0.09201,-0.165079 0.153436,-0.351406 0.276029,-0.495234 0.904692,-1.061357 -0.255431,0.84646 0.625127,-0.73338"
       style="fill:none;stroke:#52b946;stroke-width:0.26458332px;stroke-linecap:butt;stroke-linejoin:miter;stroke-opacity:1" />
    <path
       inkscape:connector-curvature="0"
       id="use7425"
       d="m 69.629056,89.639718 c 0.794735,-1.001647 0.452532,-0.468997 1.029708,-1.595952 0.08615,-0.168211 0.140987,-0.356582 0.258449,-0.504631 0.866822,-1.092504 -0.225518,0.854916 0.598959,-0.754902"
       style="fill:none;stroke:#52b946;stroke-width:0.26458332px;stroke-linecap:butt;stroke-linejoin:miter;stroke-opacity:1" />
    <path
       inkscape:connector-curvature="0"
       id="use7427"
       d="m 77.454549,93.779144 c 0.193228,-1.263947 0.160301,-0.631701 0.102465,-1.896539 -0.0086,-0.188791 -0.05445,-0.379556 -0.0259,-0.566373 0.210754,-1.378596 0.228244,0.854193 0.145627,-0.952586"
       style="fill:none;stroke:#52b946;stroke-width:0.26458332px;stroke-linecap:butt;stroke-linejoin:miter;stroke-opacity:1" />
    <path
       inkscape:connector-curvature="0"
       id="use7429"
       d="m 83.041367,106.20901 c 0.549194,-1.15468 0.335505,-0.55873 0.644537,-1.78659 0.04613,-0.18328 0.05721,-0.37915 0.13838,-0.54982 0.599009,-1.25942 -0.02754,0.88373 0.413905,-0.87024"
       style="fill:none;stroke:#52b946;stroke-width:0.26458332px;stroke-linecap:butt;stroke-linejoin:miter;stroke-opacity:1" />
    <path
       inkscape:connector-curvature="0"
       id="use7431"
       d="m 84.393082,117.42439 c 0.744154,-1.03977 0.42875,-0.49083 0.949406,-1.64499 0.07771,-0.17227 0.123156,-0.36312 0.233141,-0.51681 0.811654,-1.13409 -0.182902,0.86504 0.560839,-0.78363"
       style="fill:none;stroke:#52b946;stroke-width:0.26458332px;stroke-linecap:butt;stroke-linejoin:miter;stroke-opacity:1" />
    <path
       inkscape:connector-curvature="0"
       id="use7433"
       d="m 92.121671,129.9021 c 1.04944,-0.73046 0.568387,-0.31887 1.445551,-1.23196 0.130927,-0.13629 0.237671,-0.3009 0.39278,-0.40887 1.144631,-0.79672 -0.46208,0.75381 0.79092,-0.55052"
       style="fill:none;stroke:#52b946;stroke-width:0.26458332px;stroke-linecap:butt;stroke-linejoin:miter;stroke-opacity:1" />
    <path
       inkscape:connector-curvature="0"
       id="use7435"
       d="m 87.18005,117.75942 c -1.180112,0.49218 -0.622939,0.19155 -1.673264,0.89864 -0.156773,0.10554 -0.295894,0.24388 -0.470317,0.31662 -1.287156,0.53682 0.610951,-0.63912 -0.889403,0.37094"
       style="fill:none;stroke:#52b946;stroke-width:0.26458332px;stroke-linecap:butt;stroke-linejoin:miter;stroke-opacity:1" />
    <path
       inkscape:connector-curvature="0"
       id="use7437"
       d="m 70.48358,103.06471 c 0.711212,-1.06259 0.413161,-0.50403 0.897402,-1.67393 0.07228,-0.17462 0.111718,-0.36681 0.216835,-0.52386 0.775723,-1.158967 -0.155711,0.87034 0.536011,-0.80083"
       style="fill:none;stroke:#52b946;stroke-width:0.26458332px;stroke-linecap:butt;stroke-linejoin:miter;stroke-opacity:1" />
    <path
       inkscape:connector-curvature="0"
       id="use7439"
       d="m 58.475692,91.73318 c 0.49003,-1.181005 0.306786,-0.575 0.553258,-1.816939 0.03679,-0.185373 0.03794,-0.381561 0.110365,-0.556119 0.534479,-1.288129 0.01724,0.883993 0.369316,-0.890075"
       style="fill:none;stroke:#52b946;stroke-width:0.26458332px;stroke-linecap:butt;stroke-linejoin:miter;stroke-opacity:1" />
    <path
       inkscape:connector-curvature="0"
       id="use7441"
       d="m 61.255835,93.389499 c 0.699413,-1.070384 0.40756,-0.508565 0.878828,-1.683752 0.07034,-0.17541 0.107654,-0.368021 0.211026,-0.526229 0.762854,-1.167475 -0.146072,0.872011 0.52712,-0.806705"
       style="fill:none;stroke:#52b946;stroke-width:0.26458332px;stroke-linecap:butt;stroke-linejoin:miter;stroke-opacity:1" />
    <path
       inkscape:connector-curvature="0"
       id="use7443"
       d="m 79.320392,124.93717 c -0.432585,-1.20323 -0.160176,-0.63173 -0.813895,-1.71608 -0.09757,-0.16185 -0.228784,-0.30771 -0.292724,-0.48555 -0.471825,-1.31237 0.607793,0.64213 -0.326023,-0.90683"
       style="fill:none;stroke:#52b946;stroke-width:0.26458332px;stroke-linecap:butt;stroke-linejoin:miter;stroke-opacity:1" />
    <path
       inkscape:connector-curvature="0"
       id="use7445"
       d="m 82.234651,120.56917 c 1.207708,0.41993 0.592001,0.27254 1.846256,0.44576 0.187212,0.0258 0.38313,0.0155 0.561634,0.0776 1.317256,0.45802 -0.881461,0.0691 0.910201,0.31649"
       style="fill:none;stroke:#52b946;stroke-width:0.26458332px;stroke-linecap:butt;stroke-linejoin:miter;stroke-opacity:1" />
    <path
       inkscape:connector-curvature="0"
       id="use7447"
       d="m 62.931327,94.506256 c 0.44349,1.199257 0.165904,0.630253 0.829439,1.708622 0.09904,0.160959 0.231568,0.305622 0.297121,0.482876 0.483718,1.308036 -0.613598,-0.636584 0.334241,0.903831"
       style="fill:none;stroke:#52b946;stroke-width:0.26458332px;stroke-linecap:butt;stroke-linejoin:miter;stroke-opacity:1" />
    <path
       inkscape:connector-curvature="0"
       id="use7449"
       d="m 67.491847,101.24308 c 0.532713,-1.16238 0.327523,-0.56345 0.619058,-1.795588 0.04351,-0.183911 0.05181,-0.379927 0.130544,-0.551731 0.581033,-1.267811 -0.01496,0.884034 0.401484,-0.876036"
       style="fill:none;stroke:#52b946;stroke-width:0.26458332px;stroke-linecap:butt;stroke-linejoin:miter;stroke-opacity:1" />
    <path
       inkscape:connector-curvature="0"
       id="use7451"
       d="m 70.486831,111.4779 c -1.024119,0.76555 -0.55727,0.33792 -1.403031,1.28018 -0.12624,0.14064 -0.227351,0.30877 -0.378718,0.42192 -1.117013,0.835 0.436305,-0.76901 -0.771837,0.57697"
       style="fill:none;stroke:#52b946;stroke-width:0.26458332px;stroke-linecap:butt;stroke-linejoin:miter;stroke-opacity:1" />
    <path
       inkscape:connector-curvature="0"
       id="use7453"
       d="m 54.938661,104.6792 c -1.084896,-0.67669 -0.517047,-0.39674 -1.701911,-0.84313 -0.176854,-0.0666 -0.370209,-0.0999 -0.530562,-0.19988 -1.183303,-0.73806 0.874898,0.12765 -0.817642,-0.50999"
       style="fill:none;stroke:#52b946;stroke-width:0.26458332px;stroke-linecap:butt;stroke-linejoin:miter;stroke-opacity:1" />
    <path
       inkscape:connector-curvature="0"
       id="use7455"
       d="m 56.692831,109.0031 c -0.990602,-0.80846 -0.462717,-0.45895 -1.581612,-1.0516 -0.167008,-0.0885 -0.354606,-0.14589 -0.501022,-0.26538 -1.080457,-0.88179 0.851728,0.23728 -0.746577,-0.6093"
       style="fill:none;stroke:#52b946;stroke-width:0.26458332px;stroke-linecap:butt;stroke-linejoin:miter;stroke-opacity:1" />
    <path
       inkscape:connector-curvature="0"
       id="use7457"
       d="m 65.673639,100.15915 c -1.06675,-0.704946 -0.506449,-0.410189 -1.679181,-0.887534 -0.175044,-0.07125 -0.367459,-0.109556 -0.52513,-0.213747 -1.163511,-0.768886 0.871244,0.150584 -0.803966,-0.531287"
       style="fill:none;stroke:#52b946;stroke-width:0.26458332px;stroke-linecap:butt;stroke-linejoin:miter;stroke-opacity:1" />
    <path
       inkscape:connector-curvature="0"
       id="use7459"
       d="m 64.277791,102.81102 c 1.272777,-0.12223 0.651722,7e-4 1.863871,-0.36516 0.180928,-0.0546 0.35466,-0.14576 0.54278,-0.16383 1.388226,-0.13331 -0.772274,0.4305 0.959241,-0.0921"
       style="fill:none;stroke:#52b946;stroke-width:0.26458332px;stroke-linecap:butt;stroke-linejoin:miter;stroke-opacity:1" />
    <path
       inkscape:connector-curvature="0"
       id="use7461"
       d="m 57.453906,101.7951 c 1.276925,-0.0661 0.65106,0.0294 1.878144,-0.28273 0.183156,-0.0466 0.360734,-0.13 0.549468,-0.13977 1.39275,-0.0721 -0.790484,0.39608 0.962366,-0.0498"
       style="fill:none;stroke:#52b946;stroke-width:0.26458332px;stroke-linecap:butt;stroke-linejoin:miter;stroke-opacity:1" />
    <path
       inkscape:connector-curvature="0"
       id="use7463"
       d="m 65.86815,101.07879 c -1.262209,-0.20428 -0.630275,-0.16583 -1.89557,-0.11906 -0.18886,0.007 -0.380019,0.0511 -0.566578,0.0209 -1.376699,-0.2228 0.856157,-0.22076 -0.951276,-0.15395"
       style="fill:none;stroke:#52b946;stroke-width:0.26458332px;stroke-linecap:butt;stroke-linejoin:miter;stroke-opacity:1" />
    <path
       inkscape:connector-curvature="0"
       id="use7465"
       d="m 93.463396,96.658329 c 0.439678,1.200659 0.163901,0.630776 0.824008,1.711248 0.09853,0.161272 0.230595,0.306356 0.295585,0.483817 0.47956,1.309566 -0.611573,-0.63853 0.331368,0.904888"
       style="fill:none;stroke:#52b946;stroke-width:0.26458332px;stroke-linecap:butt;stroke-linejoin:miter;stroke-opacity:1" />
    <path
       inkscape:connector-curvature="0"
       id="use7467"
       d="m 97.796092,98.596624 c 0.697564,1.07159 0.30109,0.578003 1.186542,1.483066 0.132164,0.13509 0.293385,0.24689 0.39649,0.40527 0.760836,1.16879 -0.739112,-0.485237 0.525727,0.80761"
       style="fill:none;stroke:#52b946;stroke-width:0.26458332px;stroke-linecap:butt;stroke-linejoin:miter;stroke-opacity:1" />
    <path
       inkscape:connector-curvature="0"
       id="use7469"
       d="m 103.30965,98.317812 c 0.21595,-1.260265 0.17165,-0.628714 0.13659,-1.894388 -0.005,-0.188917 -0.0476,-0.380475 -0.0157,-0.566748 0.23553,-1.374579 0.21283,0.858163 0.16275,-0.94981"
       style="fill:none;stroke:#52b946;stroke-width:0.26458332px;stroke-linecap:butt;stroke-linejoin:miter;stroke-opacity:1" />
    <path
       inkscape:connector-curvature="0"
       id="use7471"
       d="m 105.16115,104.12156 c -0.66643,1.09123 -0.39186,0.52077 -0.82704,1.70979 -0.065,0.17747 -0.0964,0.37113 -0.19487,0.53242 -0.72688,1.19021 0.11939,-0.87606 -0.50226,0.82242"
       style="fill:none;stroke:#52b946;stroke-width:0.26458332px;stroke-linecap:butt;stroke-linejoin:miter;stroke-opacity:1" />
    <path
       inkscape:connector-curvature="0"
       id="use7473"
       d="m 106.42663,104.93431 c -1.17045,-0.51474 -0.56842,-0.3188 -1.80491,-0.59131 -0.18456,-0.0407 -0.38068,-0.046 -0.55368,-0.12203 -1.27661,-0.56142 0.88416,0.001 -0.88212,-0.38793"
       style="fill:none;stroke:#52b946;stroke-width:0.26458332px;stroke-linecap:butt;stroke-linejoin:miter;stroke-opacity:1" />
    <path
       inkscape:connector-curvature="0"
       id="use7475"
       d="m 98.916563,95.946933 c 1.176867,0.499895 0.572413,0.311587 1.812247,0.568441 0.18506,0.03834 0.38123,0.04113 0.55517,0.115015 1.28362,0.545237 -0.8841,0.0098 0.88696,0.37675"
       style="fill:none;stroke:#52b946;stroke-width:0.26458332px;stroke-linecap:butt;stroke-linejoin:miter;stroke-opacity:1" />
    <path
       inkscape:connector-curvature="0"
       id="use7477"
       d="m 118.89293,98.282468 c -1.18956,-0.468879 -0.58039,-0.296478 -1.82653,-0.520749 -0.186,-0.03347 -0.38217,-0.03113 -0.558,-0.100425 -1.29746,-0.511408 0.88355,-0.03301 -0.89652,-0.353374"
       style="fill:none;stroke:#52b946;stroke-width:0.26458332px;stroke-linecap:butt;stroke-linejoin:miter;stroke-opacity:1" />
    <path
       inkscape:connector-curvature="0"
       id="use7481"
       d="m 107.69872,104.63756 c 0.85934,-0.9468 0.48261,-0.43799 1.13317,-1.52423 0.0971,-0.16214 0.16429,-0.34647 0.2913,-0.48641 0.93729,-1.03268 -0.28165,0.8381 0.64765,-0.71357"
       style="fill:none;stroke:#52b946;stroke-width:0.26458332px;stroke-linecap:butt;stroke-linejoin:miter;stroke-opacity:1" />
    <path
       inkscape:connector-curvature="0"
       id="use7483"
       d="m 97.426294,100.32553 c 1.067242,0.7042 0.506735,0.40983 1.6798,0.88635 0.175094,0.0711 0.367535,0.1093 0.525279,0.21338 1.164047,0.76808 -0.871348,-0.14997 0.804337,0.53073"
       style="fill:none;stroke:#52b946;stroke-width:0.26458332px;stroke-linecap:butt;stroke-linejoin:miter;stroke-opacity:1" />
    <path
       inkscape:connector-curvature="0"
       id="use7485"
       d="m 101.546,105.58759 c -1.09041,0.66775 -0.58608,0.28504 -1.51521,1.1452 -0.138684,0.12839 -0.254884,0.28647 -0.41605,0.38517 -1.189322,0.72832 0.50543,-0.72546 -0.821801,0.50326"
       style="fill:none;stroke:#52b946;stroke-width:0.26458332px;stroke-linecap:butt;stroke-linejoin:miter;stroke-opacity:1" />
    <path
       inkscape:connector-curvature="0"
       id="use7487"
       d="m 108.49923,96.893284 c 1.13922,-0.580597 0.60655,-0.23842 1.59999,-1.023427 0.14828,-0.117172 0.27647,-0.265696 0.44485,-0.351513 1.24254,-0.633262 -0.56052,0.683784 0.85857,-0.437573"
       style="fill:none;stroke:#52b946;stroke-width:0.26458332px;stroke-linecap:butt;stroke-linejoin:miter;stroke-opacity:1" />
    <path
       inkscape:connector-curvature="0"
       id="use7489"
       d="m 107.82176,96.221171 c -1.26875,-0.15864 -0.63584,-0.14299 -1.89863,-0.05064 -0.18849,0.01378 -0.37793,0.0648 -0.56545,0.04135 -1.38384,-0.173029 0.84764,-0.251485 -0.95621,-0.11956"
       style="fill:none;stroke:#52b946;stroke-width:0.26458332px;stroke-linecap:butt;stroke-linejoin:miter;stroke-opacity:1" />
    <path
       inkscape:connector-curvature="0"
       id="use7491"
       d="m 108.79412,95.275485 c -0.87317,0.934068 -0.489,0.430849 -1.15545,1.507415 -0.0995,0.16069 -0.16938,0.344007 -0.29843,0.482068 -0.95237,1.018795 0.29394,-0.833869 -0.65807,0.70397"
       style="fill:none;stroke:#52b946;stroke-width:0.26458332px;stroke-linecap:butt;stroke-linejoin:miter;stroke-opacity:1" />
    <path
       inkscape:connector-curvature="0"
       id="use7493"
       d="m 98.017795,94.062732 c -0.480873,1.184763 -0.302326,0.577358 -0.539175,1.821167 -0.03535,0.185653 -0.03499,0.381844 -0.106057,0.556957 -0.52449,1.292229 -0.02408,-0.883833 -0.362414,0.892908"
       style="fill:none;stroke:#52b946;stroke-width:0.26458332px;stroke-linecap:butt;stroke-linejoin:miter;stroke-opacity:1" />
    <path
       inkscape:connector-curvature="0"
       id="use7495"
       d="m 101.63904,88.34548 c 0.90331,-0.904946 0.50285,-0.414589 1.20423,-1.468732 0.10469,-0.157343 0.18056,-0.338271 0.31407,-0.472028 0.98525,-0.987031 -0.32111,0.823787 0.68079,-0.682022"
       style="fill:none;stroke:#52b946;stroke-width:0.26458332px;stroke-linecap:butt;stroke-linejoin:miter;stroke-opacity:1" />
    <path
       inkscape:connector-curvature="0"
       id="use7497"
       d="m 109.28145,88.979311 c -1.27847,0.02031 -0.64959,-0.05269 -1.88706,0.215317 -0.18471,0.04 -0.36516,0.117002 -0.55412,0.120007 -1.39444,0.02215 0.80416,-0.367527 -0.96353,0.01531"
       style="fill:none;stroke:#52b946;stroke-width:0.26458332px;stroke-linecap:butt;stroke-linejoin:miter;stroke-opacity:1" />
    <path
       inkscape:connector-curvature="0"
       id="use7499"
       d="m 120.99031,103.58039 c -0.47389,1.18757 -0.29892,0.57913 -0.52845,1.82431 -0.0343,0.18585 -0.0327,0.38204 -0.10278,0.55757 -0.51688,1.29529 -0.0293,-0.88368 -0.35715,0.89502"
       style="fill:none;stroke:#52b946;stroke-width:0.26458332px;stroke-linecap:butt;stroke-linejoin:miter;stroke-opacity:1" />
    <path
       inkscape:connector-curvature="0"
       id="use7501"
       d="m 103.73029,100.69739 c 0.30504,1.24171 0.0936,0.64497 0.63092,1.79145 0.0802,0.17113 0.19552,0.32985 0.24061,0.51338 0.3327,1.35435 -0.53768,-0.70189 0.22989,0.93583"
       style="fill:none;stroke:#52b946;stroke-width:0.26458332px;stroke-linecap:butt;stroke-linejoin:miter;stroke-opacity:1" />
    <path
       inkscape:connector-curvature="0"
       id="use7503"
       d="m 86.04583,99.179556 c -0.752637,-1.033653 -0.330899,-0.561471 -1.262459,-1.418999 -0.139046,-0.127996 -0.305892,-0.231211 -0.417137,-0.383987 -0.820906,-1.127411 0.763471,0.445929 -0.567232,-0.779022"
       style="fill:none;stroke:#52b946;stroke-width:0.26458332px;stroke-linecap:butt;stroke-linejoin:miter;stroke-opacity:1" />
    <path
       inkscape:connector-curvature="0"
       id="use7505"
       d="m 96.246083,98.082647 c -1.184151,0.482378 -0.624505,0.186377 -1.680653,0.884739 -0.157643,0.104239 -0.297906,0.241415 -0.472926,0.312715 -1.29156,0.526134 0.616227,-0.634038 -0.892446,0.36355"
       style="fill:none;stroke:#52b946;stroke-width:0.26458332px;stroke-linecap:butt;stroke-linejoin:miter;stroke-opacity:1" />
    <path
       inkscape:connector-curvature="0"
       id="use7507"
       d="m 99.462131,88.163875 c 1.265839,-0.18041 0.651069,-0.02916 1.845189,-0.45017 0.17823,-0.06284 0.34761,-0.161853 0.5347,-0.188521 1.38066,-0.196774 -0.75174,0.465432 0.95401,-0.135968"
       style="fill:none;stroke:#52b946;stroke-width:0.26458332px;stroke-linecap:butt;stroke-linejoin:miter;stroke-opacity:1" />
    <path
       inkscape:connector-curvature="0"
       id="use7509"
       d="m 100.36298,84.467416 c 0.64981,1.101202 0.2754,0.590673 1.12023,1.533762 0.12611,0.140767 0.28226,0.259539 0.37831,0.422299 0.70875,1.201089 -0.71708,-0.517239 0.48973,0.829932"
       style="fill:none;stroke:#52b946;stroke-width:0.26458332px;stroke-linecap:butt;stroke-linejoin:miter;stroke-opacity:1" />
    <path
       inkscape:connector-curvature="0"
       id="use7511"
       d="m 45.778834,124.14173 c 0.0039,1.27863 -0.061,0.64886 0.191128,1.88967 0.03763,0.1852 0.112315,0.36662 0.1129,0.55561 0.0043,1.3946 -0.357197,-0.8088 0.003,0.96365"
       style="fill:none;stroke:#52b946;stroke-width:0.26458332px;stroke-linecap:butt;stroke-linejoin:miter;stroke-opacity:1" />
    <path
       inkscape:connector-curvature="0"
       id="use7513"
       d="m 53.101691,127.15778 c 0.914595,0.89354 0.419966,0.49837 1.48158,1.18839 0.158459,0.103 0.340191,0.17692 0.475374,0.30898 0.997555,0.97459 -0.827188,-0.31225 0.689294,0.67343"
       style="fill:none;stroke:#52b946;stroke-width:0.26458332px;stroke-linecap:butt;stroke-linejoin:miter;stroke-opacity:1" />
    <path
       inkscape:connector-curvature="0"
       id="use7515"
       d="m 53.897853,131.56887 c 0.01359,-1.27856 0.06989,-0.64796 -0.16522,-1.8921 -0.03509,-0.18571 -0.107282,-0.36813 -0.105277,-0.55711 0.01482,-1.39453 0.346082,0.81361 0.01024,-0.9636"
       style="fill:none;stroke:#52b946;stroke-width:0.26458332px;stroke-linecap:butt;stroke-linejoin:miter;stroke-opacity:1" />
    <path
       inkscape:connector-curvature="0"
       id="use7517"
       d="m 53.355562,136.97497 c -0.822417,-0.97904 -0.36899,-0.5372 -1.357702,-1.32816 -0.147577,-0.11805 -0.321171,-0.20947 -0.44273,-0.35417 -0.897015,-1.06785 0.792522,0.39198 -0.619822,-0.73787"
       style="fill:none;stroke:#52b946;stroke-width:0.26458332px;stroke-linecap:butt;stroke-linejoin:miter;stroke-opacity:1" />
    <path
       inkscape:connector-curvature="0"
       id="use7519"
       d="m 59.50386,119.52635 c 1.26812,0.16362 0.635277,0.14548 1.898416,0.0581 0.188538,-0.0131 0.37818,-0.0633 0.565613,-0.0391 1.383147,0.17846 -0.848623,0.24815 0.955731,0.12331"
       style="fill:none;stroke:#52b946;stroke-width:0.26458332px;stroke-linecap:butt;stroke-linejoin:miter;stroke-opacity:1" />
    <path
       inkscape:connector-curvature="0"
       id="use7521"
       d="m 60.36062,133.59583 c 0.957942,-0.8469 0.527706,-0.38245 1.29341,-1.39084 0.11429,-0.15052 0.201285,-0.32637 0.34287,-0.45155 1.044833,-0.92372 -0.371822,0.80218 0.721962,-0.63827"
       style="fill:none;stroke:#52b946;stroke-width:0.26458332px;stroke-linecap:butt;stroke-linejoin:miter;stroke-opacity:1" />
    <path
       inkscape:connector-curvature="0"
       id="use7523"
       d="m 46.114461,140.93093 c 0.920876,-0.88707 0.51088,-0.40465 1.232792,-1.44485 0.107754,-0.15526 0.187154,-0.33466 0.32326,-0.46578 1.004405,-0.96753 -0.337201,0.81734 0.694027,-0.66855"
       style="fill:none;stroke:#52b946;stroke-width:0.26458332px;stroke-linecap:butt;stroke-linejoin:miter;stroke-opacity:1" />
    <path
       inkscape:connector-curvature="0"
       id="use7527"
       d="m 42.913873,126.45395 c -1.263188,-0.19813 -0.631074,-0.16275 -1.896127,-0.10983 -0.188824,0.008 -0.379765,0.053 -0.566469,0.0237 -1.377767,-0.21611 0.855073,-0.22493 -0.952014,-0.14933"
       style="fill:none;stroke:#52b946;stroke-width:0.26458332px;stroke-linecap:butt;stroke-linejoin:miter;stroke-opacity:1" />
    <path
       inkscape:connector-curvature="0"
       id="use7529"
       d="m 60.502243,122.44429 c 0.866236,0.9405 0.393119,0.51981 1.416895,1.26482 0.152811,0.1112 0.330395,0.1946 0.45843,0.33361 0.94481,1.0258 -0.809583,-0.35541 0.652848,0.70881"
       style="fill:none;stroke:#52b946;stroke-width:0.26458332px;stroke-linecap:butt;stroke-linejoin:miter;stroke-opacity:1" />
    <path
       inkscape:connector-curvature="0"
       id="use7531"
       d="m 69.760849,130.34837 c 1.101916,-0.6486 0.590976,-0.27476 1.534993,-1.11855 0.140905,-0.12595 0.25985,-0.28197 0.422715,-0.37784 1.201867,-0.70743 -0.518028,0.71651 0.83047,-0.48882"
       style="fill:none;stroke:#52b946;stroke-width:0.26458332px;stroke-linecap:butt;stroke-linejoin:miter;stroke-opacity:1" />
    <path
       inkscape:connector-curvature="0"
       id="use7533"
       d="m 72.945631,137.51544 c -1.219021,0.38585 -0.63744,0.13569 -1.746193,0.7471 -0.165494,0.0913 -0.316306,0.21675 -0.496481,0.27378 -1.329594,0.42086 0.66509,-0.58257 -0.918727,0.29081"
       style="fill:none;stroke:#52b946;stroke-width:0.26458332px;stroke-linecap:butt;stroke-linejoin:miter;stroke-opacity:1" />
    <path
       inkscape:connector-curvature="0"
       id="use7535"
       d="m 55.115385,135.12528 c 0.899528,0.90871 0.411575,0.50532 1.461504,1.213 0.156714,0.10563 0.337185,0.18258 0.470141,0.31689 0.981121,0.99113 -0.821852,-0.32604 0.677938,0.68485"
       style="fill:none;stroke:#52b946;stroke-width:0.26458332px;stroke-linecap:butt;stroke-linejoin:miter;stroke-opacity:1" />
    <path
       inkscape:connector-curvature="0"
       id="use7537"
       d="m 48.602763,137.92128 c 1.263575,0.19565 0.631393,0.16151 1.896339,0.1061 0.188808,-0.008 0.37966,-0.0537 0.566422,-0.0248 1.378189,0.2134 -0.854629,0.22661 0.952305,0.14746"
       style="fill:none;stroke:#52b946;stroke-width:0.26458332px;stroke-linecap:butt;stroke-linejoin:miter;stroke-opacity:1" />
    <path
       inkscape:connector-curvature="0"
       id="use7539"
       d="m 53.458307,126.0761 c -1.151312,0.55622 -0.611483,0.22546 -1.621405,0.98914 -0.150742,0.11399 -0.282059,0.25976 -0.452226,0.34197 -1.255743,0.60667 0.574943,-0.6717 -0.867697,0.4192"
       style="fill:none;stroke:#52b946;stroke-width:0.26458332px;stroke-linecap:butt;stroke-linejoin:miter;stroke-opacity:1" />
    <path
       inkscape:connector-curvature="0"
       id="use7541"
       d="m 53.171706,119.62089 c 0.244854,-1.25497 0.186049,-0.6246 0.180086,-1.89075 -8.9e-4,-0.18899 -0.03886,-0.38147 -0.0027,-0.56696 0.267063,-1.3688 0.193054,0.86283 0.184536,-0.94582"
       style="fill:none;stroke:#52b946;stroke-width:0.26458332px;stroke-linecap:butt;stroke-linejoin:miter;stroke-opacity:1" />
    <path
       inkscape:connector-curvature="0"
       id="use7543"
       d="m 54.916779,131.09924 c 1.276969,-0.0652 0.65104,0.0298 1.878334,-0.28146 0.183188,-0.0465 0.360822,-0.12976 0.549562,-0.1394 1.392799,-0.0711 -0.79075,0.39555 0.9624,-0.0491"
       style="fill:none;stroke:#52b946;stroke-width:0.26458332px;stroke-linecap:butt;stroke-linejoin:miter;stroke-opacity:1" />
    <path
       inkscape:connector-curvature="0"
       id="use7545"
       d="m 56.39545,123.92993 c -1.100227,0.65146 -0.59026,0.27629 -1.532081,1.12254 -0.140578,0.12631 -0.259117,0.28264 -0.421732,0.37893 -1.200025,0.71055 0.516164,-0.71785 -0.829197,0.49098"
       style="fill:none;stroke:#52b946;stroke-width:0.26458332px;stroke-linecap:butt;stroke-linejoin:miter;stroke-opacity:1" />
    <path
       inkscape:connector-curvature="0"
       id="use7547"
       d="m 47.682042,132.02882 c 1.267305,-0.16983 0.651292,-0.0237 1.848882,-0.43474 0.178755,-0.0614 0.34895,-0.15894 0.536261,-0.18405 1.382257,-0.18523 -0.755603,0.45914 0.955116,-0.12799"
       style="fill:none;stroke:#52b946;stroke-width:0.26458332px;stroke-linecap:butt;stroke-linejoin:miter;stroke-opacity:1" />
    <path
       inkscape:connector-curvature="0"
       id="use7549"
       d="m 59.772299,124.58173 c 1.231939,0.34239 0.608114,0.2344 1.870838,0.32761 0.188476,0.0139 0.38334,-0.009 0.565426,0.0417 1.343684,0.37344 -0.875296,0.12489 0.928463,0.25804"
       style="fill:none;stroke:#52b946;stroke-width:0.26458332px;stroke-linecap:butt;stroke-linejoin:miter;stroke-opacity:1" />
    <path
       inkscape:connector-curvature="0"
       id="use7551"
       d="m 55.080078,137.63743 c 1.257064,-0.23386 0.649251,-0.0567 1.824462,-0.52792 0.175414,-0.0703 0.340443,-0.17643 0.52624,-0.211 1.371088,-0.25507 -0.731352,0.49686 0.947399,-0.17625"
       style="fill:none;stroke:#52b946;stroke-width:0.26458332px;stroke-linecap:butt;stroke-linejoin:miter;stroke-opacity:1" />
    <path
       inkscape:connector-curvature="0"
       id="use7553"
       d="m 52.744921,130.52485 c -0.356941,-1.2278 -0.12059,-0.64047 -0.705629,-1.76336 -0.08732,-0.16761 -0.20921,-0.32134 -0.26197,-0.50281 -0.389319,-1.33917 0.566696,0.67867 -0.269013,-0.92535"
       style="fill:none;stroke:#52b946;stroke-width:0.26458332px;stroke-linecap:butt;stroke-linejoin:miter;stroke-opacity:1" />
    <path
       inkscape:connector-curvature="0"
       id="use7555"
       d="m 90.471885,149.52126 c 1.259727,-0.21907 0.649873,-0.0491 1.830543,-0.50643 0.176229,-0.0683 0.342493,-0.17242 0.528685,-0.2048 1.373991,-0.23894 -0.737144,0.48822 0.949405,-0.1651"
       style="fill:none;stroke:#52b946;stroke-width:0.26458332px;stroke-linecap:butt;stroke-linejoin:miter;stroke-opacity:1" />
    <path
       inkscape:connector-curvature="0"
       id="use7557"
       d="m 89.373226,148.99603 c 0.885086,0.92278 0.403555,0.51175 1.442193,1.2359 0.155029,0.10809 0.334264,0.18787 0.465086,0.32426 0.965369,1.00648 -0.816608,-0.33896 0.667053,0.69546"
       style="fill:none;stroke:#52b946;stroke-width:0.26458332px;stroke-linecap:butt;stroke-linejoin:miter;stroke-opacity:1" />
    <path
       inkscape:connector-curvature="0"
       id="use7559"
       d="m 94.267494,153.81611 c -0.994407,-0.80378 -0.464879,-0.45676 -1.586559,-1.04412 -0.167424,-0.0877 -0.35529,-0.14421 -0.502269,-0.26301 -1.084607,-0.87669 0.852838,0.23325 -0.749445,-0.60578"
       style="fill:none;stroke:#52b946;stroke-width:0.26458332px;stroke-linecap:butt;stroke-linejoin:miter;stroke-opacity:1" />
    <path
       inkscape:connector-curvature="0"
       id="use7561"
       d="m 102.46895,160.10444 c 0.56287,1.14807 0.22899,0.61017 0.99851,1.61565 0.11486,0.15008 0.26138,0.28055 0.34457,0.45024 0.61393,1.25221 -0.67501,-0.57105 0.42422,0.86526"
       style="fill:none;stroke:#52b946;stroke-width:0.26458332px;stroke-linecap:butt;stroke-linejoin:miter;stroke-opacity:1" />
    <path
       inkscape:connector-curvature="0"
       id="use7563"
       d="m 94.289231,146.87329 c 0.716155,-1.05925 0.415505,-0.50209 0.905191,-1.66972 0.07309,-0.17429 0.113426,-0.36629 0.219273,-0.52285 0.781114,-1.15534 -0.159764,0.86961 0.539736,-0.79832"
       style="fill:none;stroke:#52b946;stroke-width:0.26458332px;stroke-linecap:butt;stroke-linejoin:miter;stroke-opacity:1" />
    <path
       inkscape:connector-curvature="0"
       id="use7565"
       d="m 101.50318,146.14788 c 1.27843,-0.0224 0.64967,0.0516 1.8867,-0.21842 0.18464,-0.0403 0.36497,-0.1176 0.55392,-0.12092 1.3944,-0.0244 -0.80355,0.36885 0.96351,-0.0169"
       style="fill:none;stroke:#52b946;stroke-width:0.26458332px;stroke-linecap:butt;stroke-linejoin:miter;stroke-opacity:1" />
    <path
       inkscape:connector-curvature="0"
       id="use7567"
       d="m 103.35381,159.52941 c 0.88136,-0.92634 0.49277,-0.42652 1.16868,-1.49717 0.10089,-0.15981 0.1724,-0.3425 0.30267,-0.47942 0.9613,-1.01037 -0.30128,0.83124 0.66424,-0.69815"
       style="fill:none;stroke:#52b946;stroke-width:0.26458332px;stroke-linecap:butt;stroke-linejoin:miter;stroke-opacity:1" />
    <path
       inkscape:connector-curvature="0"
       id="use7569"
       d="m 115.78781,164.098 c -1.0542,-0.72358 -0.49916,-0.41902 -1.66332,-0.9169 -0.17377,-0.0743 -0.36548,-0.116 -0.5213,-0.22295 -1.14981,-0.78921 0.86847,0.16588 -0.7945,-0.54533"
       style="fill:none;stroke:#52b946;stroke-width:0.26458332px;stroke-linecap:butt;stroke-linejoin:miter;stroke-opacity:1" />
    <path
       inkscape:connector-curvature="0"
       id="use7571"
       d="m 113.5465,161.11431 c -1.22104,-0.37944 -0.60076,-0.25266 -1.86009,-0.38397 -0.18797,-0.0196 -0.38344,-0.003 -0.56391,-0.0588 -1.33179,-0.41386 0.87867,-0.0984 -0.92025,-0.28597"
       style="fill:none;stroke:#52b946;stroke-width:0.26458332px;stroke-linecap:butt;stroke-linejoin:miter;stroke-opacity:1" />
    <path
       inkscape:connector-curvature="0"
       id="use7573"
       d="m 91.914888,157.99946 c 0.808748,0.99037 0.361497,0.54228 1.339136,1.34688 0.145925,0.12009 0.318233,0.21391 0.437771,0.36028 0.882107,1.0802 -0.787005,-0.40294 0.609521,0.7464"
       style="fill:none;stroke:#52b946;stroke-width:0.26458332px;stroke-linecap:butt;stroke-linejoin:miter;stroke-opacity:1" />
    <path
       inkscape:connector-curvature="0"
       id="use7575"
       d="m 90.372126,144.93352 c -0.446346,1.1982 -0.285472,0.58588 -0.486187,1.83603 -0.02996,0.1866 -0.02391,0.38269 -0.08988,0.55979 -0.486832,1.30688 -0.04968,-0.88276 -0.336393,0.90304"
       style="fill:none;stroke:#52b946;stroke-width:0.26458332px;stroke-linecap:butt;stroke-linejoin:miter;stroke-opacity:1" />
    <path
       inkscape:connector-curvature="0"
       id="use7577"
       d="m 87.41134,145.09671 c 0.769483,1.02117 0.34006,0.55597 1.285554,1.39811 0.141126,0.1257 0.309642,0.22616 0.423377,0.37709 0.83928,1.1138 -0.77068,-0.43335 0.579928,0.76962"
       style="fill:none;stroke:#52b946;stroke-width:0.26458332px;stroke-linecap:butt;stroke-linejoin:miter;stroke-opacity:1" />
    <path
       inkscape:connector-curvature="0"
       id="use7579"
       d="m 87.337127,152.45175 c 0.889377,-0.91864 0.496456,-0.42222 1.181649,-1.48696 0.102273,-0.15893 0.175368,-0.34099 0.306818,-0.47677 0.970048,-1.00198 -0.308489,0.82859 0.670287,-0.69235"
       style="fill:none;stroke:#52b946;stroke-width:0.26458332px;stroke-linecap:butt;stroke-linejoin:miter;stroke-opacity:1" />
    <path
       inkscape:connector-curvature="0"
       id="use7581"
       d="m 101.99308,153.12152 c 1.27246,0.12549 0.63935,0.12636 1.8993,0.001 0.18806,-0.0187 0.37611,-0.0746 0.56418,-0.0561 1.38788,0.13686 -0.84079,0.27351 0.95901,0.0946"
       style="fill:none;stroke:#52b946;stroke-width:0.26458332px;stroke-linecap:butt;stroke-linejoin:miter;stroke-opacity:1" />
    <path
       inkscape:connector-curvature="0"
       id="use7583"
       d="m 98.269618,157.82069 c -1.277718,0.0483 -0.650589,-0.0384 -1.881887,0.25664 -0.183785,0.044 -0.362504,0.12498 -0.551355,0.13212 -1.393615,0.0527 0.795905,-0.38507 -0.962965,0.0364"
       style="fill:none;stroke:#52b946;stroke-width:0.26458332px;stroke-linecap:butt;stroke-linejoin:miter;stroke-opacity:1" />
    <path
       inkscape:connector-curvature="0"
       id="use7585"
       d="m 101.39882,162.86791 c -1.15751,-0.54321 -0.56046,-0.33261 -1.789911,-0.63528 -0.18351,-0.0452 -0.379442,-0.0552 -0.550528,-0.13553 -1.262503,-0.59247 0.883863,0.023 -0.872368,-0.40939"
       style="fill:none;stroke:#52b946;stroke-width:0.26458332px;stroke-linecap:butt;stroke-linejoin:miter;stroke-opacity:1" />
    <path
       inkscape:connector-curvature="0"
       id="use7587"
       d="m 110.90422,145.50612 c -1.18413,0.48243 -0.6245,0.18641 -1.68062,0.88482 -0.15763,0.10424 -0.29789,0.24142 -0.47291,0.31273 -1.29153,0.52619 0.6162,-0.63406 -0.89243,0.36359"
       style="fill:none;stroke:#52b946;stroke-width:0.26458332px;stroke-linecap:butt;stroke-linejoin:miter;stroke-opacity:1" />
    <path
       inkscape:connector-curvature="0"
       id="use7589"
       d="m 107.27632,147.63356 c 0.2258,1.25854 0.0525,0.6496 0.51622,1.82781 0.0692,0.17586 0.17424,0.34156 0.20762,0.52758 0.24629,1.37269 -0.49216,-0.73452 0.17018,0.94851"
       style="fill:none;stroke:#52b946;stroke-width:0.26458332px;stroke-linecap:butt;stroke-linejoin:miter;stroke-opacity:1" />
    <path
       inkscape:connector-curvature="0"
       id="use7591"
       d="m 103.68444,147.39332 c 1.2341,0.33451 0.6096,0.2305 1.87289,0.31565 0.18856,0.0127 0.38328,-0.0113 0.56568,0.0381 1.34604,0.36486 -0.87448,0.13048 0.93009,0.25211"
       style="fill:none;stroke:#52b946;stroke-width:0.26458332px;stroke-linecap:butt;stroke-linejoin:miter;stroke-opacity:1" />
    <path
       inkscape:connector-curvature="0"
       id="use7593"
       d="m 110.00596,153.64593 c 0.77972,-1.01338 0.44549,-0.47569 1.00581,-1.61112 0.0836,-0.16947 0.13566,-0.35864 0.2509,-0.50842 0.85045,-1.1053 -0.21275,0.85818 0.58765,-0.76375"
       style="fill:none;stroke:#52b946;stroke-width:0.26458332px;stroke-linecap:butt;stroke-linejoin:miter;stroke-opacity:1" />
    <path
       inkscape:connector-curvature="0"
       id="use7595"
       d="m 108.41008,157.35386 c -0.70202,1.06868 -0.4088,0.50757 -0.88292,1.68161 -0.0708,0.17524 -0.10855,0.36776 -0.21231,0.52572 -0.76568,1.16561 0.1482,-0.87166 -0.52907,0.80542"
       style="fill:none;stroke:#52b946;stroke-width:0.26458332px;stroke-linecap:butt;stroke-linejoin:miter;stroke-opacity:1" />
    <path
       inkscape:connector-curvature="0"
       id="use7597"
       d="m 106.70443,158.70139 c -0.93492,-0.87225 -0.43133,-0.48857 -1.50855,-1.15397 -0.16079,-0.0993 -0.34417,-0.16903 -0.48236,-0.29795 -1.01973,-0.95136 0.83416,0.29312 -0.70462,-0.65737"
       style="fill:none;stroke:#52b946;stroke-width:0.26458332px;stroke-linecap:butt;stroke-linejoin:miter;stroke-opacity:1" />
    <path
       inkscape:connector-curvature="0"
       id="use7599"
       d="m 103.381,163.14968 c -1.27796,-0.0416 -0.64628,-0.0841 -1.89527,0.12376 -0.18643,0.031 -0.37039,0.0992 -0.55928,0.0931 -1.39387,-0.0453 0.821,-0.32818 -0.963139,-0.0313"
       style="fill:none;stroke:#52b946;stroke-width:0.26458332px;stroke-linecap:butt;stroke-linejoin:miter;stroke-opacity:1" />
    <path
       inkscape:connector-curvature="0"
       id="use7601"
       d="m 84.476693,165.1235 c -0.953801,0.85156 -0.525835,0.38502 -1.286613,1.39713 -0.113555,0.15107 -0.199691,0.32735 -0.340664,0.45321 -1.040316,0.92881 0.367906,-0.80398 -0.718841,0.64179"
       style="fill:none;stroke:#52b946;stroke-width:0.26458332px;stroke-linecap:butt;stroke-linejoin:miter;stroke-opacity:1" />
    <path
       inkscape:connector-curvature="0"
       id="use7603"
       d="m 66.833012,162.96604 c 0.98918,-0.8102 0.541745,-0.3623 1.34491,-1.34111 0.119882,-0.1461 0.213442,-0.31855 0.359644,-0.4383 1.078905,-0.88369 -0.40179,0.78759 0.745505,-0.61062"
       style="fill:none;stroke:#52b946;stroke-width:0.26458332px;stroke-linecap:butt;stroke-linejoin:miter;stroke-opacity:1" />
    <path
       inkscape:connector-curvature="0"
       id="use7605"
       d="m 72.382001,166.35277 c -1.276672,0.0708 -0.651164,-0.027 -1.877088,0.28966 -0.182983,0.0473 -0.360252,0.13133 -0.548948,0.14179 -1.392475,0.0772 0.789016,-0.39899 -0.962176,0.0533"
       style="fill:none;stroke:#52b946;stroke-width:0.26458332px;stroke-linecap:butt;stroke-linejoin:miter;stroke-opacity:1" />
    <path
       inkscape:connector-curvature="0"
       id="use7607"
       d="m 69.699331,162.16129 c 1.276703,0.0702 0.644233,0.0985 1.897568,-0.0812 0.187075,-0.0268 0.372521,-0.0909 0.561223,-0.0805 1.392507,0.0766 -0.82815,0.30969 0.962199,0.0529"
       style="fill:none;stroke:#52b946;stroke-width:0.26458332px;stroke-linecap:butt;stroke-linejoin:miter;stroke-opacity:1" />
    <path
       inkscape:connector-curvature="0"
       id="use7609"
       d="m 70.646536,150.97744 c 1.278322,-0.0282 0.649902,0.0487 1.885701,-0.22691 0.184458,-0.0411 0.36443,-0.11925 0.553371,-0.12342 1.394274,-0.0307 -0.80188,0.37247 0.963419,-0.0212"
       style="fill:none;stroke:#52b946;stroke-width:0.26458332px;stroke-linecap:butt;stroke-linejoin:miter;stroke-opacity:1" />
    <path
       inkscape:connector-curvature="0"
       id="use7611"
       d="m 61.477384,155.69622 c 1.050707,-0.72864 0.56894,-0.31789 1.447688,-1.22946 0.131163,-0.13606 0.238192,-0.30048 0.393488,-0.40818 1.146013,-0.79474 -0.463387,0.753 0.791876,-0.54915"
       style="fill:none;stroke:#52b946;stroke-width:0.26458332px;stroke-linecap:butt;stroke-linejoin:miter;stroke-opacity:1" />
    <path
       inkscape:connector-curvature="0"
       id="use7613"
       d="m 59.989111,160.76656 c 1.108055,0.63805 0.530699,0.37828 1.730549,0.78266 0.179092,0.0603 0.373497,0.0868 0.537273,0.18107 1.208563,0.69593 -0.878851,-0.0968 0.835096,0.48088"
       style="fill:none;stroke:#52b946;stroke-width:0.26458332px;stroke-linecap:butt;stroke-linejoin:miter;stroke-opacity:1" />
    <path
       inkscape:connector-curvature="0"
       id="use7615"
       d="m 75.035266,150.79294 c 1.078806,-0.68636 0.581111,-0.29505 1.495356,-1.17102 0.136462,-0.13074 0.249934,-0.29079 0.409384,-0.39224 1.17666,-0.74861 -0.492917,0.73401 0.813052,-0.51727"
       style="fill:none;stroke:#52b946;stroke-width:0.26458332px;stroke-linecap:butt;stroke-linejoin:miter;stroke-opacity:1" />
    <path
       inkscape:connector-curvature="0"
       id="use7617"
       d="m 79.519518,155.5059 c -0.623167,-1.1165 -0.261135,-0.59712 -1.083067,-1.56023 -0.122683,-0.14376 -0.275938,-0.26625 -0.368047,-0.43127 -0.679693,-1.21777 0.704446,0.53432 -0.469656,-0.84146"
       style="fill:none;stroke:#52b946;stroke-width:0.26458332px;stroke-linecap:butt;stroke-linejoin:miter;stroke-opacity:1" />
    <path
       inkscape:connector-curvature="0"
       id="use7619"
       d="m 67.813448,151.53892 c 0.60685,1.12545 0.252416,0.60086 1.060242,1.57583 0.120578,0.14553 0.272034,0.27024 0.361731,0.43658 0.661896,1.22753 -0.696595,-0.54451 0.457359,0.8482"
       style="fill:none;stroke:#52b946;stroke-width:0.26458332px;stroke-linecap:butt;stroke-linejoin:miter;stroke-opacity:1" />
    <path
       inkscape:connector-curvature="0"
       id="use7621"
       d="m 64.317018,154.38329 c -1.113481,-0.62854 -0.533921,-0.37373 -1.737192,-0.76781 -0.179602,-0.0588 -0.374226,-0.0836 -0.538804,-0.17646 -1.214482,-0.68555 0.879647,0.0892 -0.839186,-0.47371"
       style="fill:none;stroke:#52b946;stroke-width:0.26458332px;stroke-linecap:butt;stroke-linejoin:miter;stroke-opacity:1" />
    <path
       inkscape:connector-curvature="0"
       id="use7623"
       d="m 67.424524,149.38692 c 1.244695,-0.29263 0.645872,-0.0871 1.797659,-0.61301 0.171917,-0.0785 0.331781,-0.19222 0.515751,-0.23548 1.357596,-0.31918 -0.707214,0.53065 0.938076,-0.22055"
       style="fill:none;stroke:#52b946;stroke-width:0.26458332px;stroke-linecap:butt;stroke-linejoin:miter;stroke-opacity:1" />
    <path
       inkscape:connector-curvature="0"
       id="use7625"
       d="m 68.702575,148.21978 c 0.08877,1.27555 -0.01781,0.65148 0.316101,1.87282 0.04984,0.1823 0.136396,0.35836 0.14952,0.54689 0.09682,1.39125 -0.41008,-0.78331 0.0669,0.96133"
       style="fill:none;stroke:#52b946;stroke-width:0.26458332px;stroke-linecap:butt;stroke-linejoin:miter;stroke-opacity:1" />
    <path
       inkscape:connector-curvature="0"
       id="use7627"
       d="m 69.13731,155.06254 c -0.96976,-0.83335 -0.450918,-0.47055 -1.554408,-1.09141 -0.164708,-0.0927 -0.350788,-0.15484 -0.494124,-0.27801 -1.057724,-0.90894 0.84543,0.25882 -0.730869,-0.62806"
       style="fill:none;stroke:#52b946;stroke-width:0.26458332px;stroke-linecap:butt;stroke-linejoin:miter;stroke-opacity:1" />
    <path
       inkscape:connector-curvature="0"
       id="use7629"
       d="m 67.724707,150.34097 c 1.177852,0.49756 0.57303,0.31045 1.813369,0.56484 0.185136,0.038 0.381312,0.0404 0.555404,0.11392 1.284691,0.54269 -0.884085,0.0116 0.8877,0.37499"
       style="fill:none;stroke:#52b946;stroke-width:0.26458332px;stroke-linecap:butt;stroke-linejoin:miter;stroke-opacity:1" />
    <path
       inkscape:connector-curvature="0"
       id="use7631"
       d="m 72.651696,160.73226 c -1.276802,0.0684 -0.651112,-0.0282 -1.877626,0.28614 -0.183071,0.0469 -0.360496,0.13066 -0.549212,0.14077 -1.392616,0.0746 0.78976,-0.39752 -0.962274,0.0515"
       style="fill:none;stroke:#52b946;stroke-width:0.26458332px;stroke-linecap:butt;stroke-linejoin:miter;stroke-opacity:1" />
    <g
       id="g2427"
       inkscape:path-effect="#path-effect2429">
      <g
         id="g6173"
         style="stroke:#7f5908;stroke-opacity:1;filter:url(#filter6503)">
        <path
           inkscape:original-d="M 85.422617,86.656248 C 85.233628,135.79315 122.84226,107.63393 122.84226,107.63393"
           style="fill:none;stroke:#7f5908;stroke-width:3.16499996;stroke-linecap:butt;stroke-linejoin:miter;stroke-miterlimit:4;stroke-dasharray:none;stroke-opacity:1"
           d="m 85.422617,86.656248 c -0.01939,5.041532 0.298679,10.121703 1.552539,15.004862 0.830039,3.23259 2.096357,6.41581 4.210825,8.99798 1.568099,1.91495 3.644549,3.42449 5.986384,4.2256 2.197016,0.75156 4.567665,0.90787 6.879215,0.68769 l 1e-5,0 c 4.54226,-0.43266 8.8763,-2.16008 12.90602,-4.30036 l 0,0 h 0 c 1.45779,-0.77426 2.88079,-1.61426 4.26135,-2.51907 0,0 1e-5,0 1e-5,0 0.40312,-0.2642 0.80265,-0.53393 1.19656,-0.81167 0,0 10e-6,0 10e-6,0 0.106,-0.0747 0.2116,-0.15005 0.31648,-0.22635 0.0273,-0.0199 0.0546,-0.0398 0.0818,-0.0599 0.007,-0.005 0.014,-0.0104 0.021,-0.0156 0.007,-0.006 0.007,-0.006 0.007,-0.006"
           id="path2339-4"
           inkscape:connector-curvature="0"
           sodipodi:nodetypes="cc" />
        <path
           inkscape:original-d="m 48.569939,108.57887 c 37.041665,23.24553 37.797619,63.31101 37.797619,63.31101"
           style="fill:none;stroke:#7f5908;stroke-width:3.16499996;stroke-linecap:butt;stroke-linejoin:miter;stroke-miterlimit:4;stroke-dasharray:none;stroke-opacity:1"
           d="m 48.569939,108.57887 c 8.283397,5.19825 15.649635,11.87351 21.52624,19.69029 l 2e-6,0 c 4.730132,6.29179 8.505123,13.2914 11.257175,20.66616 l 0,0 5.014202,22.95454 c 0,1e-5 0,2e-5 0,2e-5"
           id="path2343-8"
           inkscape:connector-curvature="0" />
        <path
           inkscape:original-d="M 123.03125,151.85714 C 85.800593,128.6116 48.569939,150.34524 48.569939,150.34524"
           style="fill:none;stroke:#7f5908;stroke-width:3.16499996;stroke-linecap:butt;stroke-linejoin:miter;stroke-miterlimit:4;stroke-dasharray:none;stroke-opacity:1"
           d="m 123.03125,151.85714 c -8.29387,-5.17841 -17.64953,-8.67383 -27.331139,-10.04152 -7.905942,-1.11684 -15.987814,-0.85531 -23.844809,0.56556 l -4e-6,0 0,0 c -5.775839,1.04451 -11.443163,2.69458 -16.87216,4.92556 l -4e-6,0 h 0 c -1.602252,0.65843 -3.184322,1.36719 -4.731855,2.14557 h 0 l -3e-6,0 h 0 c -0.419615,0.21106 -0.836704,0.42722 -1.249212,0.65185 h 0 c -2e-6,0 -3e-6,0 -4e-6,0 -0.107601,0.0586 -0.214891,0.11776 -0.321593,0.17798 l 0,0 c -0.02741,0.0155 -0.05477,0.031 -0.08207,0.0467 l -0.02844,0.0164 c -1.2e-5,1e-5 -1.7e-5,1e-5 -1.7e-5,1e-5"
           id="path2347-1"
           inkscape:connector-curvature="0" />
      </g>
    </g>
  </g>
  <g
     inkscape:groupmode="layer"
     id="layer2"
     inkscape:label="Layer 2"
     transform="translate(-35.440022,-83.400184)" />
</svg>
